<?xml version="1.0" encoding="UTF-8" standalone="no"?>
<!DOCTYPE svg PUBLIC "-//W3C//DTD SVG 1.1//EN"
 "http://www.w3.org/Graphics/SVG/1.1/DTD/svg11.dtd">
<!-- Generated by graphviz version 9.0.0 (20230911.1827)
 -->
<!-- Pages: 1 -->
<svg width="1254pt" height="670pt"
 viewBox="0.00 0.00 1254.00 670.00" xmlns="http://www.w3.org/2000/svg" xmlns:xlink="http://www.w3.org/1999/xlink">
<g id="graph0" class="graph" transform="scale(1 1) rotate(0) translate(4 666)">
<polygon fill="white" stroke="none" points="-4,4 -4,-666 1250,-666 1250,4 -4,4"/>
<g id="clust1" class="cluster">
<title>cluster~</title>
<path fill="none" stroke="black" stroke-width="2.6" d="M20,-8C20,-8 1226,-8 1226,-8 1232,-8 1238,-14 1238,-20 1238,-20 1238,-642 1238,-642 1238,-648 1232,-654 1226,-654 1226,-654 20,-654 20,-654 14,-654 8,-648 8,-642 8,-642 8,-20 8,-20 8,-14 14,-8 20,-8"/>
<text text-anchor="middle" x="623" y="-637.65" font-family="Arial Black" font-size="13.00">lib</text>
</g>
<g id="clust2" class="cluster">
<title>cluster~/data</title>
<path fill="none" stroke="black" stroke-width="2.6" d="M28,-16C28,-16 288,-16 288,-16 294,-16 300,-22 300,-28 300,-28 300,-536 300,-536 300,-542 294,-548 288,-548 288,-548 28,-548 28,-548 22,-548 16,-542 16,-536 16,-536 16,-28 16,-28 16,-22 22,-16 28,-16"/>
<text text-anchor="middle" x="158" y="-531.65" font-family="Arial Black" font-size="13.00">data</text>
</g>
<g id="clust3" class="cluster">
<title>cluster~/data/datasources</title>
<path fill="none" stroke="black" stroke-width="2.6" d="M36,-237C36,-237 280,-237 280,-237 286,-237 292,-243 292,-249 292,-249 292,-300 292,-300 292,-306 286,-312 280,-312 280,-312 36,-312 36,-312 30,-312 24,-306 24,-300 24,-300 24,-249 24,-249 24,-243 30,-237 36,-237"/>
<text text-anchor="middle" x="158" y="-295.65" font-family="Arial Black" font-size="13.00">datasources</text>
</g>
<g id="clust4" class="cluster">
<title>cluster~/data/utils</title>
<path fill="none" stroke="black" stroke-width="2.6" d="M200,-328C200,-328 280,-328 280,-328 286,-328 292,-334 292,-340 292,-340 292,-391 292,-391 292,-397 286,-403 280,-403 280,-403 200,-403 200,-403 194,-403 188,-397 188,-391 188,-391 188,-340 188,-340 188,-334 194,-328 200,-328"/>
<text text-anchor="middle" x="240" y="-386.65" font-family="Arial Black" font-size="13.00">utils</text>
</g>
<g id="clust5" class="cluster">
<title>cluster~/data/repositories</title>
<path fill="none" stroke="black" stroke-width="2.6" d="M128,-442C128,-442 280,-442 280,-442 286,-442 292,-448 292,-454 292,-454 292,-505 292,-505 292,-511 286,-517 280,-517 280,-517 128,-517 128,-517 122,-517 116,-511 116,-505 116,-505 116,-454 116,-454 116,-448 122,-442 128,-442"/>
<text text-anchor="middle" x="204" y="-500.65" font-family="Arial Black" font-size="13.00">repositories</text>
</g>
<g id="clust6" class="cluster">
<title>cluster~/data/models</title>
<path fill="none" stroke="black" stroke-width="2.6" d="M134,-24C134,-24 260,-24 260,-24 266,-24 272,-30 272,-36 272,-36 272,-170 272,-170 272,-176 266,-182 260,-182 260,-182 134,-182 134,-182 128,-182 122,-176 122,-170 122,-170 122,-36 122,-36 122,-30 128,-24 134,-24"/>
<text text-anchor="middle" x="197" y="-165.65" font-family="Arial Black" font-size="13.00">models</text>
</g>
<g id="clust7" class="cluster">
<title>cluster~/domain</title>
<path fill="none" stroke="black" stroke-width="2.6" d="M364,-16C364,-16 530,-16 530,-16 536,-16 542,-22 542,-28 542,-28 542,-201 542,-201 542,-207 536,-213 530,-213 530,-213 364,-213 364,-213 358,-213 352,-207 352,-201 352,-201 352,-28 352,-28 352,-22 358,-16 364,-16"/>
<text text-anchor="middle" x="447" y="-196.65" font-family="Arial Black" font-size="13.00">domain</text>
</g>
<g id="clust8" class="cluster">
<title>cluster~/domain/repositories</title>
<path fill="none" stroke="black" stroke-width="2.6" d="M406,-107C406,-107 522,-107 522,-107 528,-107 534,-113 534,-119 534,-119 534,-170 534,-170 534,-176 528,-182 522,-182 522,-182 406,-182 406,-182 400,-182 394,-176 394,-170 394,-170 394,-119 394,-119 394,-113 400,-107 406,-107"/>
<text text-anchor="middle" x="464" y="-165.65" font-family="Arial Black" font-size="13.00">repositories</text>
</g>
<g id="clust9" class="cluster">
<title>cluster~/domain/entities</title>
<path fill="none" stroke="black" stroke-width="2.6" d="M372,-24C372,-24 522,-24 522,-24 528,-24 534,-30 534,-36 534,-36 534,-87 534,-87 534,-93 528,-99 522,-99 522,-99 372,-99 372,-99 366,-99 360,-93 360,-87 360,-87 360,-36 360,-36 360,-30 366,-24 372,-24"/>
<text text-anchor="middle" x="447" y="-82.65" font-family="Arial Black" font-size="13.00">entities</text>
</g>
<g id="clust10" class="cluster">
<title>cluster~/presentation</title>
<path fill="none" stroke="black" stroke-width="2.6" d="M424,-221C424,-221 1156,-221 1156,-221 1162,-221 1168,-227 1168,-233 1168,-233 1168,-567 1168,-567 1168,-573 1162,-579 1156,-579 1156,-579 424,-579 424,-579 418,-579 412,-573 412,-567 412,-567 412,-233 412,-233 412,-227 418,-221 424,-221"/>
<text text-anchor="middle" x="790" y="-562.65" font-family="Arial Black" font-size="13.00">presentation</text>
</g>
<g id="clust11" class="cluster">
<title>cluster~/presentation/store_items</title>
<path fill="none" stroke="black" stroke-width="2.6" d="M852,-229C852,-229 1148,-229 1148,-229 1154,-229 1160,-235 1160,-241 1160,-241 1160,-422 1160,-422 1160,-428 1154,-434 1148,-434 1148,-434 852,-434 852,-434 846,-434 840,-428 840,-422 840,-422 840,-241 840,-241 840,-235 846,-229 852,-229"/>
<text text-anchor="middle" x="1000" y="-417.65" font-family="Arial Black" font-size="13.00">store_items</text>
</g>
<g id="clust12" class="cluster">
<title>cluster~/presentation/store_items/cubit</title>
<path fill="none" stroke="black" stroke-width="2.6" d="M860,-237C860,-237 1140,-237 1140,-237 1146,-237 1152,-243 1152,-249 1152,-249 1152,-300 1152,-300 1152,-306 1146,-312 1140,-312 1140,-312 860,-312 860,-312 854,-312 848,-306 848,-300 848,-300 848,-249 848,-249 848,-243 854,-237 860,-237"/>
<text text-anchor="middle" x="1000" y="-295.65" font-family="Arial Black" font-size="13.00">cubit</text>
</g>
<g id="clust13" class="cluster">
<title>cluster~/presentation/store_items/page</title>
<path fill="none" stroke="black" stroke-width="2.6" d="M936,-328C936,-328 1064,-328 1064,-328 1070,-328 1076,-334 1076,-340 1076,-340 1076,-391 1076,-391 1076,-397 1070,-403 1064,-403 1064,-403 936,-403 936,-403 930,-403 924,-397 924,-391 924,-391 924,-340 924,-340 924,-334 930,-328 936,-328"/>
<text text-anchor="middle" x="1000" y="-386.65" font-family="Arial Black" font-size="13.00">page</text>
</g>
<g id="clust14" class="cluster">
<title>cluster~/presentation/stores</title>
<path fill="none" stroke="black" stroke-width="2.6" d="M432,-320C432,-320 820,-320 820,-320 826,-320 832,-326 832,-332 832,-332 832,-536 832,-536 832,-542 826,-548 820,-548 820,-548 432,-548 432,-548 426,-548 420,-542 420,-536 420,-536 420,-332 420,-332 420,-326 426,-320 432,-320"/>
<text text-anchor="middle" x="626" y="-531.65" font-family="Arial Black" font-size="13.00">stores</text>
</g>
<g id="clust15" class="cluster">
<title>cluster~/presentation/stores/cubit</title>
<path fill="none" stroke="black" stroke-width="2.6" d="M440,-328C440,-328 646,-328 646,-328 652,-328 658,-334 658,-340 658,-340 658,-391 658,-391 658,-397 652,-403 646,-403 646,-403 440,-403 440,-403 434,-403 428,-397 428,-391 428,-391 428,-340 428,-340 428,-334 434,-328 440,-328"/>
<text text-anchor="middle" x="543" y="-386.65" font-family="Arial Black" font-size="13.00">cubit</text>
</g>
<g id="clust16" class="cluster">
<title>cluster~/presentation/stores/page</title>
<path fill="none" stroke="black" stroke-width="2.6" d="M711,-442C711,-442 801,-442 801,-442 807,-442 813,-448 813,-454 813,-454 813,-505 813,-505 813,-511 807,-517 801,-517 801,-517 711,-517 711,-517 705,-517 699,-511 699,-505 699,-505 699,-454 699,-454 699,-448 705,-442 711,-442"/>
<text text-anchor="middle" x="756" y="-500.65" font-family="Arial Black" font-size="13.00">page</text>
</g>
<g id="clust17" class="cluster">
<title>cluster~/presentation/stores/widgets</title>
<path fill="none" stroke="black" stroke-width="2.6" d="M678,-328C678,-328 812,-328 812,-328 818,-328 824,-334 824,-340 824,-340 824,-391 824,-391 824,-397 818,-403 812,-403 812,-403 678,-403 678,-403 672,-403 666,-397 666,-391 666,-391 666,-340 666,-340 666,-334 672,-328 678,-328"/>
<text text-anchor="middle" x="745" y="-386.65" font-family="Arial Black" font-size="13.00">widgets</text>
</g>
<!-- /main.dart -->
<g id="node1" class="node">
<title>/main.dart</title>
<path fill="Lavender" stroke="black" stroke-width="1.3" d="M416,-623C416,-623 386,-623 386,-623 380,-623 374,-617 374,-611 374,-611 374,-599 374,-599 374,-593 380,-587 386,-587 386,-587 416,-587 416,-587 422,-587 428,-593 428,-599 428,-599 428,-611 428,-611 428,-617 422,-623 416,-623"/>
<text text-anchor="middle" x="401" y="-599.75" font-family="Arial" font-size="15.00">main</text>
</g>
<!-- /data/datasources/app_database.dart -->
<g id="node2" class="node">
<title>/data/datasources/app_database.dart</title>
<path fill="Lavender" stroke="black" stroke-width="1.3" d="M272.25,-281C272.25,-281 185.75,-281 185.75,-281 179.75,-281 173.75,-275 173.75,-269 173.75,-269 173.75,-257 173.75,-257 173.75,-251 179.75,-245 185.75,-245 185.75,-245 272.25,-245 272.25,-245 278.25,-245 284.25,-251 284.25,-257 284.25,-257 284.25,-269 284.25,-269 284.25,-275 278.25,-281 272.25,-281"/>
<text text-anchor="middle" x="229" y="-257.75" font-family="Arial" font-size="15.00">app_database</text>
</g>
<!-- /main.dart&#45;&gt;/data/datasources/app_database.dart -->
<g id="edge1" class="edge">
<title>/main.dart&#45;&gt;/data/datasources/app_database.dart</title>
<path fill="none" stroke="black" stroke-width="1.3" d="M373.74,-603.69C305.13,-602.63 129.49,-598.07 112,-579 32.39,-492.21 98.69,-415.22 168,-320 176.16,-308.79 186.83,-298.07 196.97,-289.07"/>
<polygon fill="black" stroke="black" stroke-width="1.3" points="199.21,-291.76 204.54,-282.6 194.66,-286.44 199.21,-291.76"/>
</g>
<!-- /data/repositories/store_repository_impl.dart -->
<g id="node5" class="node">
<title>/data/repositories/store_repository_impl.dart</title>
<path fill="Lavender" stroke="black" stroke-width="1.3" d="M271.62,-486C271.62,-486 136.38,-486 136.38,-486 130.38,-486 124.38,-480 124.38,-474 124.38,-474 124.38,-462 124.38,-462 124.38,-456 130.38,-450 136.38,-450 136.38,-450 271.62,-450 271.62,-450 277.62,-450 283.62,-456 283.62,-462 283.62,-462 283.62,-474 283.62,-474 283.62,-480 277.62,-486 271.62,-486"/>
<text text-anchor="middle" x="204" y="-462.75" font-family="Arial" font-size="15.00">store_repository_impl</text>
</g>
<!-- /main.dart&#45;&gt;/data/repositories/store_repository_impl.dart -->
<g id="edge2" class="edge">
<title>/main.dart&#45;&gt;/data/repositories/store_repository_impl.dart</title>
<path fill="none" stroke="black" stroke-width="1.3" d="M373.9,-603.19C349.68,-601.31 314.08,-595.65 288,-579 256.24,-558.73 231.88,-522.02 217.76,-496.62"/>
<polygon fill="black" stroke="black" stroke-width="1.3" points="220.9,-495.08 213.1,-487.91 214.73,-498.38 220.9,-495.08"/>
</g>
<!-- /domain/repositories/store_repository.dart -->
<g id="node8" class="node">
<title>/domain/repositories/store_repository.dart</title>
<path fill="Lavender" stroke="black" stroke-width="1.3" d="M514,-151C514,-151 414,-151 414,-151 408,-151 402,-145 402,-139 402,-139 402,-127 402,-127 402,-121 408,-115 414,-115 414,-115 514,-115 514,-115 520,-115 526,-121 526,-127 526,-127 526,-139 526,-139 526,-145 520,-151 514,-151"/>
<text text-anchor="middle" x="464" y="-127.75" font-family="Arial" font-size="15.00">store_repository</text>
</g>
<!-- /main.dart&#45;&gt;/domain/repositories/store_repository.dart -->
<g id="edge3" class="edge">
<title>/main.dart&#45;&gt;/domain/repositories/store_repository.dart</title>
<path fill="none" stroke="black" stroke-width="1.3" d="M397.85,-586.56C397.5,-584.03 397.2,-581.45 397,-579 392.17,-518.3 396,-502.88 397,-442 397.89,-387.76 391.3,-373.38 401,-320 411.5,-262.19 436.42,-197.91 451.58,-162.08"/>
<polygon fill="black" stroke="black" stroke-width="1.3" points="454.62,-163.87 455.35,-153.3 448.19,-161.11 454.62,-163.87"/>
</g>
<!-- /presentation/store_items/cubit/store_items_cubit.dart -->
<g id="node12" class="node">
<title>/presentation/store_items/cubit/store_items_cubit.dart</title>
<path fill="Lavender" stroke="black" stroke-width="1.3" d="M977.88,-281C977.88,-281 868.12,-281 868.12,-281 862.12,-281 856.12,-275 856.12,-269 856.12,-269 856.12,-257 856.12,-257 856.12,-251 862.12,-245 868.12,-245 868.12,-245 977.88,-245 977.88,-245 983.88,-245 989.88,-251 989.88,-257 989.88,-257 989.88,-269 989.88,-269 989.88,-275 983.88,-281 977.88,-281"/>
<text text-anchor="middle" x="923" y="-257.75" font-family="Arial" font-size="15.00">store_items_cubit</text>
</g>
<!-- /main.dart&#45;&gt;/presentation/store_items/cubit/store_items_cubit.dart -->
<g id="edge4" class="edge">
<title>/main.dart&#45;&gt;/presentation/store_items/cubit/store_items_cubit.dart</title>
<path fill="none" stroke="black" stroke-width="1.3" d="M401.08,-586.71C401.54,-527.9 404.53,-338.29 424,-320 441.33,-303.71 829.33,-319.18 852,-312 867.33,-307.15 882.38,-297.83 894.64,-288.69"/>
<polygon fill="black" stroke="black" stroke-width="1.3" points="896.58,-291.62 902.29,-282.7 892.26,-286.11 896.58,-291.62"/>
</g>
<!-- /presentation/stores/cubit/stores_cubit.dart -->
<g id="node14" class="node">
<title>/presentation/stores/cubit/stores_cubit.dart</title>
<path fill="Lavender" stroke="black" stroke-width="1.3" d="M637.5,-372C637.5,-372 564.5,-372 564.5,-372 558.5,-372 552.5,-366 552.5,-360 552.5,-360 552.5,-348 552.5,-348 552.5,-342 558.5,-336 564.5,-336 564.5,-336 637.5,-336 637.5,-336 643.5,-336 649.5,-342 649.5,-348 649.5,-348 649.5,-360 649.5,-360 649.5,-366 643.5,-372 637.5,-372"/>
<text text-anchor="middle" x="601" y="-348.75" font-family="Arial" font-size="15.00">stores_cubit</text>
</g>
<!-- /main.dart&#45;&gt;/presentation/stores/cubit/stores_cubit.dart -->
<g id="edge5" class="edge">
<title>/main.dart&#45;&gt;/presentation/stores/cubit/stores_cubit.dart</title>
<path fill="none" stroke="black" stroke-width="1.3" d="M415.88,-586.92C442.14,-556.61 498.17,-491.21 543,-434 556.34,-416.97 570.74,-397.37 581.85,-381.95"/>
<polygon fill="black" stroke="black" stroke-width="1.3" points="584.5,-384.26 587.49,-374.09 578.82,-380.18 584.5,-384.26"/>
</g>
<!-- /presentation/stores/page/stores_page.dart -->
<g id="node16" class="node">
<title>/presentation/stores/page/stores_page.dart</title>
<path fill="Lavender" stroke="black" stroke-width="1.3" d="M793.25,-486C793.25,-486 718.75,-486 718.75,-486 712.75,-486 706.75,-480 706.75,-474 706.75,-474 706.75,-462 706.75,-462 706.75,-456 712.75,-450 718.75,-450 718.75,-450 793.25,-450 793.25,-450 799.25,-450 805.25,-456 805.25,-462 805.25,-462 805.25,-474 805.25,-474 805.25,-480 799.25,-486 793.25,-486"/>
<text text-anchor="middle" x="756" y="-462.75" font-family="Arial" font-size="15.00">stores_page</text>
</g>
<!-- /main.dart&#45;&gt;/presentation/stores/page/stores_page.dart -->
<g id="edge6" class="edge">
<title>/main.dart&#45;&gt;/presentation/stores/page/stores_page.dart</title>
<path fill="none" stroke="black" stroke-width="1.3" d="M428.32,-603.39C500.15,-601.46 689.21,-594.66 712,-579 739.17,-560.32 752.89,-523.73 757.46,-497.89"/>
<polygon fill="black" stroke="black" stroke-width="1.3" points="760.9,-498.52 758.73,-488.15 753.96,-497.61 760.9,-498.52"/>
</g>
<!-- /data/models/stores_table.dart -->
<g id="node6" class="node">
<title>/data/models/stores_table.dart</title>
<path fill="Lavender" stroke="black" stroke-width="1.3" d="M233.88,-68C233.88,-68 160.12,-68 160.12,-68 154.12,-68 148.12,-62 148.12,-56 148.12,-56 148.12,-44 148.12,-44 148.12,-38 154.12,-32 160.12,-32 160.12,-32 233.88,-32 233.88,-32 239.88,-32 245.88,-38 245.88,-44 245.88,-44 245.88,-56 245.88,-56 245.88,-62 239.88,-68 233.88,-68"/>
<text text-anchor="middle" x="197" y="-44.75" font-family="Arial" font-size="15.00">stores_table</text>
</g>
<!-- /data/datasources/app_database.dart&#45;&gt;/data/models/stores_table.dart -->
<g id="edge8" class="edge">
<title>/data/datasources/app_database.dart&#45;&gt;/data/models/stores_table.dart</title>
<path fill="none" stroke="black" stroke-width="1.3" d="M206.77,-244.7C194.97,-236.32 179.86,-226.85 165,-221 146.5,-213.72 133.74,-228.26 121,-213 90.81,-176.83 99.75,-149.05 121,-107 127.53,-94.09 138.59,-83.42 150.28,-74.99"/>
<polygon fill="black" stroke="black" stroke-width="1.3" points="152.13,-77.96 158.53,-69.51 148.26,-72.13 152.13,-77.96"/>
</g>
<!-- /data/models/store_items_table.dart -->
<g id="node7" class="node">
<title>/data/models/store_items_table.dart</title>
<path fill="Lavender" stroke="black" stroke-width="1.3" d="M252.25,-151C252.25,-151 141.75,-151 141.75,-151 135.75,-151 129.75,-145 129.75,-139 129.75,-139 129.75,-127 129.75,-127 129.75,-121 135.75,-115 141.75,-115 141.75,-115 252.25,-115 252.25,-115 258.25,-115 264.25,-121 264.25,-127 264.25,-127 264.25,-139 264.25,-139 264.25,-145 258.25,-151 252.25,-151"/>
<text text-anchor="middle" x="197" y="-127.75" font-family="Arial" font-size="15.00">store_items_table</text>
</g>
<!-- /data/datasources/app_database.dart&#45;&gt;/data/models/store_items_table.dart -->
<g id="edge7" class="edge">
<title>/data/datasources/app_database.dart&#45;&gt;/data/models/store_items_table.dart</title>
<path fill="none" stroke="black" stroke-width="1.3" d="M224.68,-244.74C219.44,-223.74 210.5,-188 204.2,-162.81"/>
<polygon fill="black" stroke="black" stroke-width="1.3" points="207.65,-162.16 201.83,-153.31 200.86,-163.86 207.65,-162.16"/>
</g>
<!-- /domain/entities/store_item.dart -->
<g id="node9" class="node">
<title>/domain/entities/store_item.dart</title>
<path fill="Lavender" stroke="black" stroke-width="1.3" d="M442.25,-68C442.25,-68 379.75,-68 379.75,-68 373.75,-68 367.75,-62 367.75,-56 367.75,-56 367.75,-44 367.75,-44 367.75,-38 373.75,-32 379.75,-32 379.75,-32 442.25,-32 442.25,-32 448.25,-32 454.25,-38 454.25,-44 454.25,-44 454.25,-56 454.25,-56 454.25,-62 448.25,-68 442.25,-68"/>
<text text-anchor="middle" x="411" y="-44.75" font-family="Arial" font-size="15.00">store_item</text>
</g>
<!-- /data/datasources/app_database.dart&#45;&gt;/domain/entities/store_item.dart -->
<g id="edge10" class="edge">
<title>/data/datasources/app_database.dart&#45;&gt;/domain/entities/store_item.dart</title>
<path fill="none" stroke="black" stroke-width="1.3" d="M250.08,-244.92C259.38,-236.29 269.63,-225.1 276,-213 298.41,-170.42 268.59,-145.08 298,-107 312.59,-88.11 335.24,-75.16 356.44,-66.51"/>
<polygon fill="black" stroke="black" stroke-width="1.3" points="357.4,-69.88 365.51,-63.06 354.92,-63.34 357.4,-69.88"/>
</g>
<!-- /domain/entities/store.dart -->
<g id="node10" class="node">
<title>/domain/entities/store.dart</title>
<path fill="Lavender" stroke="black" stroke-width="1.3" d="M514,-68C514,-68 484,-68 484,-68 478,-68 472,-62 472,-56 472,-56 472,-44 472,-44 472,-38 478,-32 484,-32 484,-32 514,-32 514,-32 520,-32 526,-38 526,-44 526,-44 526,-56 526,-56 526,-62 520,-68 514,-68"/>
<text text-anchor="middle" x="499" y="-44.75" font-family="Arial" font-size="15.00">store</text>
</g>
<!-- /data/datasources/app_database.dart&#45;&gt;/domain/entities/store.dart -->
<g id="edge9" class="edge">
<title>/data/datasources/app_database.dart&#45;&gt;/domain/entities/store.dart</title>
<path fill="none" stroke="black" stroke-width="1.3" d="M255.58,-244.55C267.54,-235.93 281.33,-224.84 292,-213 329.15,-171.77 310.54,-135.77 358,-107 378.01,-94.87 442.48,-110.25 463,-99 471.73,-94.21 478.97,-86.3 484.6,-78.27"/>
<polygon fill="black" stroke="black" stroke-width="1.3" points="487.48,-80.26 489.83,-69.93 481.55,-76.54 487.48,-80.26"/>
</g>
<!-- /data/datasources/app_database.g.dart -->
<g id="node3" class="node">
<title>/data/datasources/app_database.g.dart</title>
<path fill="Lavender" stroke="black" stroke-width="1.3" d="M143.62,-281C143.62,-281 44.38,-281 44.38,-281 38.38,-281 32.38,-275 32.38,-269 32.38,-269 32.38,-257 32.38,-257 32.38,-251 38.38,-245 44.38,-245 44.38,-245 143.62,-245 143.62,-245 149.62,-245 155.62,-251 155.62,-257 155.62,-257 155.62,-269 155.62,-269 155.62,-275 149.62,-281 143.62,-281"/>
<text text-anchor="middle" x="94" y="-257.75" font-family="Arial" font-size="15.00">app_database.g</text>
</g>
<!-- /data/utils/extensions.dart -->
<g id="node4" class="node">
<title>/data/utils/extensions.dart</title>
<path fill="Lavender" stroke="black" stroke-width="1.3" d="M271.62,-372C271.62,-372 208.38,-372 208.38,-372 202.38,-372 196.38,-366 196.38,-360 196.38,-360 196.38,-348 196.38,-348 196.38,-342 202.38,-336 208.38,-336 208.38,-336 271.62,-336 271.62,-336 277.62,-336 283.62,-342 283.62,-348 283.62,-348 283.62,-360 283.62,-360 283.62,-366 277.62,-372 271.62,-372"/>
<text text-anchor="middle" x="240" y="-348.75" font-family="Arial" font-size="15.00">extensions</text>
</g>
<!-- /data/utils/extensions.dart&#45;&gt;/data/datasources/app_database.dart -->
<g id="edge11" class="edge">
<title>/data/utils/extensions.dart&#45;&gt;/data/datasources/app_database.dart</title>
<path fill="none" stroke="black" stroke-width="1.3" d="M237.88,-335.84C236.38,-323.73 234.34,-307.21 232.59,-293.06"/>
<polygon fill="black" stroke="black" stroke-width="1.3" points="236.09,-292.86 231.39,-283.36 229.15,-293.72 236.09,-292.86"/>
</g>
<!-- /data/utils/extensions.dart&#45;&gt;/domain/entities/store_item.dart -->
<g id="edge13" class="edge">
<title>/data/utils/extensions.dart&#45;&gt;/domain/entities/store_item.dart</title>
<path fill="none" stroke="black" stroke-width="1.3" d="M272.13,-335.57C281.1,-329.25 290.01,-321.33 296,-312 321.11,-272.86 313.33,-146.42 338,-107 345.81,-94.52 357.46,-83.76 369.18,-75.11"/>
<polygon fill="black" stroke="black" stroke-width="1.3" points="371.1,-78.04 377.33,-69.47 367.12,-72.28 371.1,-78.04"/>
</g>
<!-- /data/utils/extensions.dart&#45;&gt;/domain/entities/store.dart -->
<g id="edge12" class="edge">
<title>/data/utils/extensions.dart&#45;&gt;/domain/entities/store.dart</title>
<path fill="none" stroke="black" stroke-width="1.3" d="M280.8,-335.65C291.49,-329.49 302.2,-321.63 310,-312 370.41,-237.4 302.89,-166.77 378,-107 392.85,-95.19 446.45,-108.27 463,-99 471.69,-94.13 478.91,-86.2 484.55,-78.18"/>
<polygon fill="black" stroke="black" stroke-width="1.3" points="487.42,-80.18 489.79,-69.86 481.5,-76.46 487.42,-80.18"/>
</g>
<!-- /data/repositories/store_repository_impl.dart&#45;&gt;/data/datasources/app_database.dart -->
<g id="edge14" class="edge">
<title>/data/repositories/store_repository_impl.dart&#45;&gt;/data/datasources/app_database.dart</title>
<path fill="none" stroke="black" stroke-width="1.3" d="M191.1,-449.67C188.19,-444.84 185.51,-439.42 184,-434 170.37,-385.2 167.18,-367.79 184,-320 187.83,-309.11 194.77,-298.78 202.07,-290.02"/>
<polygon fill="black" stroke="black" stroke-width="1.3" points="204.62,-292.43 208.69,-282.65 199.41,-287.75 204.62,-292.43"/>
</g>
<!-- /data/repositories/store_repository_impl.dart&#45;&gt;/data/utils/extensions.dart -->
<g id="edge15" class="edge">
<title>/data/repositories/store_repository_impl.dart&#45;&gt;/data/utils/extensions.dart</title>
<path fill="none" stroke="black" stroke-width="1.3" d="M209.62,-449.5C215.28,-431.91 224.09,-404.5 230.77,-383.72"/>
<polygon fill="black" stroke="black" stroke-width="1.3" points="234.08,-384.84 233.81,-374.25 227.42,-382.7 234.08,-384.84"/>
</g>
<!-- /data/repositories/store_repository_impl.dart&#45;&gt;/domain/repositories/store_repository.dart -->
<g id="edge18" class="edge">
<title>/data/repositories/store_repository_impl.dart&#45;&gt;/domain/repositories/store_repository.dart</title>
<path fill="none" stroke="black" stroke-width="1.3" d="M257.42,-449.6C267.5,-446.75 278.02,-444.06 288,-442 302.9,-438.93 345.07,-444.59 356,-434 373.19,-417.35 377.95,-242.72 388,-221 398.98,-197.29 418.47,-175.18 434.96,-159.18"/>
<polygon fill="black" stroke="black" stroke-width="1.3" points="436.92,-162.14 441.82,-152.74 432.13,-157.03 436.92,-162.14"/>
</g>
<!-- /data/repositories/store_repository_impl.dart&#45;&gt;/domain/entities/store_item.dart -->
<g id="edge17" class="edge">
<title>/data/repositories/store_repository_impl.dart&#45;&gt;/domain/entities/store_item.dart</title>
<path fill="none" stroke="black" stroke-width="1.3" d="M275.32,-449.75C283.04,-445.58 290.19,-440.41 296,-434 346.3,-378.48 349.58,-176.32 378,-107 381.96,-97.35 387.36,-87.37 392.64,-78.55"/>
<polygon fill="black" stroke="black" stroke-width="1.3" points="395.56,-80.49 397.89,-70.15 389.63,-76.78 395.56,-80.49"/>
</g>
<!-- /data/repositories/store_repository_impl.dart&#45;&gt;/domain/entities/store.dart -->
<g id="edge16" class="edge">
<title>/data/repositories/store_repository_impl.dart&#45;&gt;/domain/entities/store.dart</title>
<path fill="none" stroke="black" stroke-width="1.3" d="M261.27,-449.53C270.2,-446.93 279.33,-444.34 288,-442 302.57,-438.07 310.31,-444.65 321,-434 360.55,-394.58 339.11,-366.56 351,-312 355.94,-289.35 372.97,-122.74 390,-107 401.99,-95.92 448.82,-107.08 463,-99 471.65,-94.07 478.86,-86.12 484.5,-78.1"/>
<polygon fill="black" stroke="black" stroke-width="1.3" points="487.37,-80.12 489.75,-69.79 481.45,-76.38 487.37,-80.12"/>
</g>
<!-- /data/models/stores_table.dart&#45;&gt;/domain/entities/store.dart -->
<g id="edge19" class="edge">
<title>/data/models/stores_table.dart&#45;&gt;/domain/entities/store.dart</title>
<path fill="none" stroke="black" stroke-width="1.3" d="M242.09,-68.37C275.41,-80.92 322.23,-96.41 365,-103 384.55,-106.01 434.65,-107.11 454,-103 467.38,-100.16 477.73,-89.45 485.11,-78.39"/>
<polygon fill="black" stroke="black" stroke-width="1.3" points="487.97,-80.44 490.06,-70.05 481.95,-76.87 487.97,-80.44"/>
</g>
<!-- /data/models/store_items_table.dart&#45;&gt;/data/models/stores_table.dart -->
<g id="edge20" class="edge">
<title>/data/models/store_items_table.dart&#45;&gt;/data/models/stores_table.dart</title>
<path fill="none" stroke="black" stroke-width="1.3" d="M197,-114.82C197,-104.8 197,-91.88 197,-80.29"/>
<polygon fill="black" stroke="black" stroke-width="1.3" points="200.5,-80.4 197,-70.4 193.5,-80.4 200.5,-80.4"/>
</g>
<!-- /data/models/store_items_table.dart&#45;&gt;/domain/entities/store_item.dart -->
<g id="edge21" class="edge">
<title>/data/models/store_items_table.dart&#45;&gt;/domain/entities/store_item.dart</title>
<path fill="none" stroke="black" stroke-width="1.3" d="M243.17,-114.52C276.43,-101.93 321.44,-84.9 356.47,-71.64"/>
<polygon fill="black" stroke="black" stroke-width="1.3" points="357.51,-74.99 365.63,-68.17 355.03,-68.44 357.51,-74.99"/>
</g>
<!-- /domain/repositories/store_repository.dart&#45;&gt;/domain/entities/store_item.dart -->
<g id="edge23" class="edge">
<title>/domain/repositories/store_repository.dart&#45;&gt;/domain/entities/store_item.dart</title>
<path fill="none" stroke="black" stroke-width="1.3" d="M452.76,-114.82C445.78,-104.16 436.66,-90.22 428.72,-78.08"/>
<polygon fill="black" stroke="black" stroke-width="1.3" points="431.89,-76.53 423.48,-70.08 426.03,-80.36 431.89,-76.53"/>
</g>
<!-- /domain/repositories/store_repository.dart&#45;&gt;/domain/entities/store.dart -->
<g id="edge22" class="edge">
<title>/domain/repositories/store_repository.dart&#45;&gt;/domain/entities/store.dart</title>
<path fill="none" stroke="black" stroke-width="1.3" d="M471.42,-114.82C475.89,-104.48 481.7,-91.05 486.82,-79.18"/>
<polygon fill="black" stroke="black" stroke-width="1.3" points="489.93,-80.81 490.69,-70.24 483.51,-78.03 489.93,-80.81"/>
</g>
<!-- /presentation/store_items/cubit/store_items_state.dart -->
<g id="node11" class="node">
<title>/presentation/store_items/cubit/store_items_state.dart</title>
<path fill="Lavender" stroke="black" stroke-width="1.3" d="M1131.62,-281C1131.62,-281 1020.38,-281 1020.38,-281 1014.38,-281 1008.38,-275 1008.38,-269 1008.38,-269 1008.38,-257 1008.38,-257 1008.38,-251 1014.38,-245 1020.38,-245 1020.38,-245 1131.62,-245 1131.62,-245 1137.62,-245 1143.62,-251 1143.62,-257 1143.62,-257 1143.62,-269 1143.62,-269 1143.62,-275 1137.62,-281 1131.62,-281"/>
<text text-anchor="middle" x="1076" y="-257.75" font-family="Arial" font-size="15.00">store_items_state</text>
</g>
<!-- /presentation/store_items/cubit/store_items_cubit.dart&#45;&gt;/domain/repositories/store_repository.dart -->
<g id="edge26" class="edge">
<title>/presentation/store_items/cubit/store_items_cubit.dart&#45;&gt;/domain/repositories/store_repository.dart</title>
<path fill="none" stroke="black" stroke-width="1.3" d="M855.93,-245.8C818.48,-236.57 771.03,-224.57 729,-213 661.51,-194.43 584.94,-171.38 531.52,-154.99"/>
<polygon fill="black" stroke="black" stroke-width="1.3" points="532.62,-151.66 522.03,-152.07 530.56,-158.35 532.62,-151.66"/>
</g>
<!-- /presentation/store_items/cubit/store_items_cubit.dart&#45;&gt;/domain/entities/store_item.dart -->
<g id="edge25" class="edge">
<title>/presentation/store_items/cubit/store_items_cubit.dart&#45;&gt;/domain/entities/store_item.dart</title>
<path fill="none" stroke="black" stroke-width="1.3" d="M889.04,-244.58C823.23,-211.67 672.93,-140.66 538,-107 505.47,-98.89 493.53,-112.85 463,-99 451.71,-93.88 441.23,-85.33 432.69,-76.86"/>
<polygon fill="black" stroke="black" stroke-width="1.3" points="435.29,-74.51 425.88,-69.64 430.2,-79.31 435.29,-74.51"/>
</g>
<!-- /presentation/store_items/cubit/store_items_cubit.dart&#45;&gt;/domain/entities/store.dart -->
<g id="edge24" class="edge">
<title>/presentation/store_items/cubit/store_items_cubit.dart&#45;&gt;/domain/entities/store.dart</title>
<path fill="none" stroke="black" stroke-width="1.3" d="M907.69,-244.52C878.35,-212.16 810.69,-142.94 739,-107 673.06,-73.95 587.1,-60.02 537.98,-54.44"/>
<polygon fill="black" stroke="black" stroke-width="1.3" points="538.59,-50.99 528.28,-53.41 537.85,-57.95 538.59,-50.99"/>
</g>
<!-- /presentation/store_items/page/store_items_page.dart -->
<g id="node13" class="node">
<title>/presentation/store_items/page/store_items_page.dart</title>
<path fill="Lavender" stroke="black" stroke-width="1.3" d="M1055.62,-372C1055.62,-372 944.38,-372 944.38,-372 938.38,-372 932.38,-366 932.38,-360 932.38,-360 932.38,-348 932.38,-348 932.38,-342 938.38,-336 944.38,-336 944.38,-336 1055.62,-336 1055.62,-336 1061.62,-336 1067.62,-342 1067.62,-348 1067.62,-348 1067.62,-360 1067.62,-360 1067.62,-366 1061.62,-372 1055.62,-372"/>
<text text-anchor="middle" x="1000" y="-348.75" font-family="Arial" font-size="15.00">store_items_page</text>
</g>
<!-- /presentation/store_items/page/store_items_page.dart&#45;&gt;/domain/entities/store_item.dart -->
<g id="edge28" class="edge">
<title>/presentation/store_items/page/store_items_page.dart&#45;&gt;/domain/entities/store_item.dart</title>
<path fill="none" stroke="black" stroke-width="1.3" d="M1068.09,-343.46C1104.83,-336.76 1144.88,-326.41 1156,-312 1180.7,-279.97 1181.01,-252.78 1156,-221 1147.68,-210.42 698.34,-108.84 685,-107 660.55,-103.64 485.82,-108.4 463,-99 451.24,-94.16 440.49,-85.38 431.86,-76.65"/>
<polygon fill="black" stroke="black" stroke-width="1.3" points="434.65,-74.51 425.3,-69.53 429.5,-79.25 434.65,-74.51"/>
</g>
<!-- /presentation/store_items/page/store_items_page.dart&#45;&gt;/domain/entities/store.dart -->
<g id="edge27" class="edge">
<title>/presentation/store_items/page/store_items_page.dart&#45;&gt;/domain/entities/store.dart</title>
<path fill="none" stroke="black" stroke-width="1.3" d="M1067.91,-347.61C1117.3,-342.11 1178.17,-331.52 1194,-312 1219.47,-280.58 1213.18,-256.61 1194,-221 1150.33,-139.93 1107.66,-138.12 1021,-107 931.88,-75 643.57,-58.05 538.11,-52.81"/>
<polygon fill="black" stroke="black" stroke-width="1.3" points="538.59,-49.33 528.43,-52.33 538.25,-56.32 538.59,-49.33"/>
</g>
<!-- /presentation/store_items/page/store_items_page.dart&#45;&gt;/presentation/store_items/cubit/store_items_cubit.dart -->
<g id="edge29" class="edge">
<title>/presentation/store_items/page/store_items_page.dart&#45;&gt;/presentation/store_items/cubit/store_items_cubit.dart</title>
<path fill="none" stroke="black" stroke-width="1.3" d="M985.15,-335.84C973.93,-322.87 958.34,-304.85 945.58,-290.1"/>
<polygon fill="black" stroke="black" stroke-width="1.3" points="948.54,-288.17 939.35,-282.9 943.25,-292.75 948.54,-288.17"/>
</g>
<!-- /presentation/stores/cubit/stores_cubit.dart&#45;&gt;/domain/repositories/store_repository.dart -->
<g id="edge31" class="edge">
<title>/presentation/stores/cubit/stores_cubit.dart&#45;&gt;/domain/repositories/store_repository.dart</title>
<path fill="none" stroke="black" stroke-width="1.3" d="M592.04,-335.54C578.71,-309.92 552.47,-260.84 527,-221 513.65,-200.12 497.18,-177.47 484.43,-160.51"/>
<polygon fill="black" stroke="black" stroke-width="1.3" points="487.42,-158.67 478.59,-152.81 481.84,-162.9 487.42,-158.67"/>
</g>
<!-- /presentation/stores/cubit/stores_cubit.dart&#45;&gt;/domain/entities/store.dart -->
<g id="edge30" class="edge">
<title>/presentation/stores/cubit/stores_cubit.dart&#45;&gt;/domain/entities/store.dart</title>
<path fill="none" stroke="black" stroke-width="1.3" d="M626.57,-335.62C637.07,-329.45 649.65,-323.23 662,-320 675.28,-316.52 1146.37,-321.78 1156,-312 1184.37,-283.17 1179.69,-253.78 1156,-221 1081.7,-118.2 667.66,-68.07 537.9,-54.73"/>
<polygon fill="black" stroke="black" stroke-width="1.3" points="538.51,-51.27 528.21,-53.75 537.8,-58.24 538.51,-51.27"/>
</g>
<!-- /presentation/stores/cubit/stores_state.dart -->
<g id="node15" class="node">
<title>/presentation/stores/cubit/stores_state.dart</title>
<path fill="Lavender" stroke="black" stroke-width="1.3" d="M522.25,-372C522.25,-372 447.75,-372 447.75,-372 441.75,-372 435.75,-366 435.75,-360 435.75,-360 435.75,-348 435.75,-348 435.75,-342 441.75,-336 447.75,-336 447.75,-336 522.25,-336 522.25,-336 528.25,-336 534.25,-342 534.25,-348 534.25,-348 534.25,-360 534.25,-360 534.25,-366 528.25,-372 522.25,-372"/>
<text text-anchor="middle" x="485" y="-348.75" font-family="Arial" font-size="15.00">stores_state</text>
</g>
<!-- /presentation/stores/page/stores_page.dart&#45;&gt;/main.dart -->
<g id="edge33" class="edge">
<title>/presentation/stores/page/stores_page.dart&#45;&gt;/main.dart</title>
<path fill="none" stroke="black" stroke-width="1.3" d="M747.34,-486.2C739.02,-511.28 725.62,-557.27 694,-579 673.29,-593.24 515.19,-600.15 440.12,-602.74"/>
<polygon fill="black" stroke="black" stroke-width="1.3" points="440.24,-599.23 430.36,-603.07 440.48,-606.23 440.24,-599.23"/>
</g>
<!-- /presentation/stores/page/stores_page.dart&#45;&gt;/domain/entities/store.dart -->
<g id="edge32" class="edge">
<title>/presentation/stores/page/stores_page.dart&#45;&gt;/domain/entities/store.dart</title>
<path fill="none" stroke="black" stroke-width="1.3" d="M805.67,-465.87C884.07,-463.44 1032.47,-455.99 1080,-434 1180.03,-387.71 1245.31,-324.34 1207,-221 1183.77,-158.35 1168.38,-137.62 1109,-107 1008.81,-55.33 656.24,-50.83 537.99,-50.82"/>
<polygon fill="black" stroke="black" stroke-width="1.3" points="538.3,-47.31 528.31,-50.83 538.31,-54.31 538.3,-47.31"/>
</g>
<!-- /presentation/stores/page/stores_page.dart&#45;&gt;/presentation/store_items/cubit/store_items_cubit.dart -->
<g id="edge34" class="edge">
<title>/presentation/stores/page/stores_page.dart&#45;&gt;/presentation/store_items/cubit/store_items_cubit.dart</title>
<path fill="none" stroke="black" stroke-width="1.3" d="M805.09,-449.62C813.32,-445.33 821.33,-440.16 828,-434 871.49,-393.85 899.92,-329.12 913.56,-292.2"/>
<polygon fill="black" stroke="black" stroke-width="1.3" points="916.74,-293.7 916.8,-283.11 910.14,-291.35 916.74,-293.7"/>
</g>
<!-- /presentation/stores/page/stores_page.dart&#45;&gt;/presentation/store_items/page/store_items_page.dart -->
<g id="edge35" class="edge">
<title>/presentation/stores/page/stores_page.dart&#45;&gt;/presentation/store_items/page/store_items_page.dart</title>
<path fill="none" stroke="black" stroke-width="1.3" d="M803.08,-449.6C815.5,-444.77 828.84,-439.37 841,-434 880.9,-416.39 925.27,-394.11 956.98,-377.7"/>
<polygon fill="black" stroke="black" stroke-width="1.3" points="958.22,-381 965.48,-373.29 954.99,-374.79 958.22,-381"/>
</g>
<!-- /presentation/stores/page/stores_page.dart&#45;&gt;/presentation/stores/cubit/stores_cubit.dart -->
<g id="edge36" class="edge">
<title>/presentation/stores/page/stores_page.dart&#45;&gt;/presentation/stores/cubit/stores_cubit.dart</title>
<path fill="none" stroke="black" stroke-width="1.3" d="M722.3,-449.58C715.99,-446.77 709.38,-444.09 703,-442 685.36,-436.22 677.8,-443.75 662,-434 641.97,-421.64 626.03,-400.16 615.47,-382.71"/>
<polygon fill="black" stroke="black" stroke-width="1.3" points="618.59,-381.13 610.58,-374.2 612.52,-384.61 618.59,-381.13"/>
</g>
<!-- /presentation/stores/widgets/store_name_dialog.dart -->
<g id="node17" class="node">
<title>/presentation/stores/widgets/store_name_dialog.dart</title>
<path fill="Lavender" stroke="black" stroke-width="1.3" d="M804.38,-372C804.38,-372 685.62,-372 685.62,-372 679.62,-372 673.62,-366 673.62,-360 673.62,-360 673.62,-348 673.62,-348 673.62,-342 679.62,-336 685.62,-336 685.62,-336 804.38,-336 804.38,-336 810.38,-336 816.38,-342 816.38,-348 816.38,-348 816.38,-360 816.38,-360 816.38,-366 810.38,-372 804.38,-372"/>
<text text-anchor="middle" x="745" y="-348.75" font-family="Arial" font-size="15.00">store_name_dialog</text>
</g>
<!-- /presentation/stores/page/stores_page.dart&#45;&gt;/presentation/stores/widgets/store_name_dialog.dart -->
<g id="edge37" class="edge">
<title>/presentation/stores/page/stores_page.dart&#45;&gt;/presentation/stores/widgets/store_name_dialog.dart</title>
<path fill="none" stroke="black" stroke-width="1.3" d="M754.28,-449.5C752.56,-431.99 749.89,-404.76 747.85,-384.01"/>
<polygon fill="black" stroke="black" stroke-width="1.3" points="751.36,-383.95 746.9,-374.34 744.39,-384.63 751.36,-383.95"/>
</g>
</g>
</svg>
