<?xml version="1.0" encoding="UTF-8" standalone="no"?>
<!DOCTYPE svg PUBLIC "-//W3C//DTD SVG 1.1//EN"
 "http://www.w3.org/Graphics/SVG/1.1/DTD/svg11.dtd">
<!-- Generated by graphviz version 9.0.0 (20230911.1827)
 -->
<!-- Pages: 1 -->
<svg width="786pt" height="631pt"
 viewBox="0.00 0.00 786.00 631.00" xmlns="http://www.w3.org/2000/svg" xmlns:xlink="http://www.w3.org/1999/xlink">
<g id="graph0" class="graph" transform="scale(1 1) rotate(0) translate(4 627)">
<polygon fill="white" stroke="none" points="-4,4 -4,-627 782,-627 782,4 -4,4"/>
<g id="clust1" class="cluster">
<title>cluster~</title>
<path fill="none" stroke="black" stroke-width="2.6" d="M20,-8C20,-8 758,-8 758,-8 764,-8 770,-14 770,-20 770,-20 770,-603 770,-603 770,-609 764,-615 758,-615 758,-615 20,-615 20,-615 14,-615 8,-609 8,-603 8,-603 8,-20 8,-20 8,-14 14,-8 20,-8"/>
<text text-anchor="middle" x="389" y="-598.65" font-family="Arial Black" font-size="13.00">lib</text>
</g>
<g id="clust2" class="cluster">
<title>cluster~/data</title>
<path fill="none" stroke="black" stroke-width="2.6" d="M28,-16C28,-16 288,-16 288,-16 294,-16 300,-22 300,-28 300,-28 300,-497 300,-497 300,-503 294,-509 288,-509 288,-509 28,-509 28,-509 22,-509 16,-503 16,-497 16,-497 16,-28 16,-28 16,-22 22,-16 28,-16"/>
<text text-anchor="middle" x="158" y="-492.65" font-family="Arial Black" font-size="13.00">data</text>
</g>
<g id="clust3" class="cluster">
<title>cluster~/data/datasources</title>
<path fill="none" stroke="black" stroke-width="2.6" d="M36,-221C36,-221 280,-221 280,-221 286,-221 292,-227 292,-233 292,-233 292,-284 292,-284 292,-290 286,-296 280,-296 280,-296 36,-296 36,-296 30,-296 24,-290 24,-284 24,-284 24,-233 24,-233 24,-227 30,-221 36,-221"/>
<text text-anchor="middle" x="158" y="-279.65" font-family="Arial Black" font-size="13.00">datasources</text>
</g>
<g id="clust4" class="cluster">
<title>cluster~/data/utils</title>
<path fill="none" stroke="black" stroke-width="2.6" d="M146,-320C146,-320 226,-320 226,-320 232,-320 238,-326 238,-332 238,-332 238,-383 238,-383 238,-389 232,-395 226,-395 226,-395 146,-395 146,-395 140,-395 134,-389 134,-383 134,-383 134,-332 134,-332 134,-326 140,-320 146,-320"/>
<text text-anchor="middle" x="186" y="-378.65" font-family="Arial Black" font-size="13.00">utils</text>
</g>
<g id="clust5" class="cluster">
<title>cluster~/data/repositories</title>
<path fill="none" stroke="black" stroke-width="2.6" d="M128,-403C128,-403 280,-403 280,-403 286,-403 292,-409 292,-415 292,-415 292,-466 292,-466 292,-472 286,-478 280,-478 280,-478 128,-478 128,-478 122,-478 116,-472 116,-466 116,-466 116,-415 116,-415 116,-409 122,-403 128,-403"/>
<text text-anchor="middle" x="204" y="-461.65" font-family="Arial Black" font-size="13.00">repositories</text>
</g>
<g id="clust6" class="cluster">
<title>cluster~/data/models</title>
<path fill="none" stroke="black" stroke-width="2.6" d="M134,-24C134,-24 260,-24 260,-24 266,-24 272,-30 272,-36 272,-36 272,-170 272,-170 272,-176 266,-182 260,-182 260,-182 134,-182 134,-182 128,-182 122,-176 122,-170 122,-170 122,-36 122,-36 122,-30 128,-24 134,-24"/>
<text text-anchor="middle" x="197" y="-165.65" font-family="Arial Black" font-size="13.00">models</text>
</g>
<g id="clust7" class="cluster">
<title>cluster~/domain</title>
<path fill="none" stroke="black" stroke-width="2.6" d="M364,-16C364,-16 530,-16 530,-16 536,-16 542,-22 542,-28 542,-28 542,-201 542,-201 542,-207 536,-213 530,-213 530,-213 364,-213 364,-213 358,-213 352,-207 352,-201 352,-201 352,-28 352,-28 352,-22 358,-16 364,-16"/>
<text text-anchor="middle" x="447" y="-196.65" font-family="Arial Black" font-size="13.00">domain</text>
</g>
<g id="clust8" class="cluster">
<title>cluster~/domain/repositories</title>
<path fill="none" stroke="black" stroke-width="2.6" d="M406,-107C406,-107 522,-107 522,-107 528,-107 534,-113 534,-119 534,-119 534,-170 534,-170 534,-176 528,-182 522,-182 522,-182 406,-182 406,-182 400,-182 394,-176 394,-170 394,-170 394,-119 394,-119 394,-113 400,-107 406,-107"/>
<text text-anchor="middle" x="464" y="-165.65" font-family="Arial Black" font-size="13.00">repositories</text>
</g>
<g id="clust9" class="cluster">
<title>cluster~/domain/entities</title>
<path fill="none" stroke="black" stroke-width="2.6" d="M372,-24C372,-24 522,-24 522,-24 528,-24 534,-30 534,-36 534,-36 534,-87 534,-87 534,-93 528,-99 522,-99 522,-99 372,-99 372,-99 366,-99 360,-93 360,-87 360,-87 360,-36 360,-36 360,-30 366,-24 372,-24"/>
<text text-anchor="middle" x="447" y="-82.65" font-family="Arial Black" font-size="13.00">entities</text>
</g>
<g id="clust10" class="cluster">
<title>cluster~/presentation</title>
<path fill="none" stroke="black" stroke-width="2.6" d="M330,-304C330,-304 734,-304 734,-304 740,-304 746,-310 746,-316 746,-316 746,-528 746,-528 746,-534 740,-540 734,-540 734,-540 330,-540 330,-540 324,-540 318,-534 318,-528 318,-528 318,-316 318,-316 318,-310 324,-304 330,-304"/>
<text text-anchor="middle" x="532" y="-523.65" font-family="Arial Black" font-size="13.00">presentation</text>
</g>
<g id="clust11" class="cluster">
<title>cluster~/presentation/stores</title>
<path fill="none" stroke="black" stroke-width="2.6" d="M338,-312C338,-312 726,-312 726,-312 732,-312 738,-318 738,-324 738,-324 738,-497 738,-497 738,-503 732,-509 726,-509 726,-509 338,-509 338,-509 332,-509 326,-503 326,-497 326,-497 326,-324 326,-324 326,-318 332,-312 338,-312"/>
<text text-anchor="middle" x="532" y="-492.65" font-family="Arial Black" font-size="13.00">stores</text>
</g>
<g id="clust12" class="cluster">
<title>cluster~/presentation/stores/cubit</title>
<path fill="none" stroke="black" stroke-width="2.6" d="M346,-320C346,-320 552,-320 552,-320 558,-320 564,-326 564,-332 564,-332 564,-383 564,-383 564,-389 558,-395 552,-395 552,-395 346,-395 346,-395 340,-395 334,-389 334,-383 334,-383 334,-332 334,-332 334,-326 340,-320 346,-320"/>
<text text-anchor="middle" x="449" y="-378.65" font-family="Arial Black" font-size="13.00">cubit</text>
</g>
<g id="clust13" class="cluster">
<title>cluster~/presentation/stores/page</title>
<path fill="none" stroke="black" stroke-width="2.6" d="M606,-403C606,-403 696,-403 696,-403 702,-403 708,-409 708,-415 708,-415 708,-466 708,-466 708,-472 702,-478 696,-478 696,-478 606,-478 606,-478 600,-478 594,-472 594,-466 594,-466 594,-415 594,-415 594,-409 600,-403 606,-403"/>
<text text-anchor="middle" x="651" y="-461.65" font-family="Arial Black" font-size="13.00">page</text>
</g>
<g id="clust14" class="cluster">
<title>cluster~/presentation/stores/widgets</title>
<path fill="none" stroke="black" stroke-width="2.6" d="M584,-320C584,-320 718,-320 718,-320 724,-320 730,-326 730,-332 730,-332 730,-383 730,-383 730,-389 724,-395 718,-395 718,-395 584,-395 584,-395 578,-395 572,-389 572,-383 572,-383 572,-332 572,-332 572,-326 578,-320 584,-320"/>
<text text-anchor="middle" x="651" y="-378.65" font-family="Arial Black" font-size="13.00">widgets</text>
</g>
<!-- /main.dart -->
<g id="node1" class="node">
<title>/main.dart</title>
<path fill="Lavender" stroke="black" stroke-width="1.3" d="M324,-584C324,-584 294,-584 294,-584 288,-584 282,-578 282,-572 282,-572 282,-560 282,-560 282,-554 288,-548 294,-548 294,-548 324,-548 324,-548 330,-548 336,-554 336,-560 336,-560 336,-572 336,-572 336,-578 330,-584 324,-584"/>
<text text-anchor="middle" x="309" y="-560.75" font-family="Arial" font-size="15.00">main</text>
</g>
<!-- /data/datasources/app_database.dart -->
<g id="node2" class="node">
<title>/data/datasources/app_database.dart</title>
<path fill="Lavender" stroke="black" stroke-width="1.3" d="M272.25,-265C272.25,-265 185.75,-265 185.75,-265 179.75,-265 173.75,-259 173.75,-253 173.75,-253 173.75,-241 173.75,-241 173.75,-235 179.75,-229 185.75,-229 185.75,-229 272.25,-229 272.25,-229 278.25,-229 284.25,-235 284.25,-241 284.25,-241 284.25,-253 284.25,-253 284.25,-259 278.25,-265 272.25,-265"/>
<text text-anchor="middle" x="229" y="-241.75" font-family="Arial" font-size="15.00">app_database</text>
</g>
<!-- /main.dart&#45;&gt;/data/datasources/app_database.dart -->
<g id="edge1" class="edge">
<title>/main.dart&#45;&gt;/data/datasources/app_database.dart</title>
<path fill="none" stroke="black" stroke-width="1.3" d="M281.56,-565.76C232.71,-566.46 133.77,-564.7 112,-540 42.64,-461.28 47.19,-382.31 117,-304 131.39,-287.86 145.12,-304.51 165,-296 178.23,-290.34 191.24,-281.39 202.04,-272.75"/>
<polygon fill="black" stroke="black" stroke-width="1.3" points="203.98,-275.69 209.4,-266.59 199.48,-270.32 203.98,-275.69"/>
</g>
<!-- /data/repositories/store_repository_impl.dart -->
<g id="node5" class="node">
<title>/data/repositories/store_repository_impl.dart</title>
<path fill="Lavender" stroke="black" stroke-width="1.3" d="M271.62,-447C271.62,-447 136.38,-447 136.38,-447 130.38,-447 124.38,-441 124.38,-435 124.38,-435 124.38,-423 124.38,-423 124.38,-417 130.38,-411 136.38,-411 136.38,-411 271.62,-411 271.62,-411 277.62,-411 283.62,-417 283.62,-423 283.62,-423 283.62,-435 283.62,-435 283.62,-441 277.62,-447 271.62,-447"/>
<text text-anchor="middle" x="204" y="-423.75" font-family="Arial" font-size="15.00">store_repository_impl</text>
</g>
<!-- /main.dart&#45;&gt;/data/repositories/store_repository_impl.dart -->
<g id="edge2" class="edge">
<title>/main.dart&#45;&gt;/data/repositories/store_repository_impl.dart</title>
<path fill="none" stroke="black" stroke-width="1.3" d="M294.21,-547.6C292.11,-545.07 289.98,-542.48 288,-540 265.59,-512.03 240.78,-479.31 223.97,-456.87"/>
<polygon fill="black" stroke="black" stroke-width="1.3" points="226.82,-454.83 218.03,-448.92 221.21,-459.02 226.82,-454.83"/>
</g>
<!-- /domain/repositories/store_repository.dart -->
<g id="node8" class="node">
<title>/domain/repositories/store_repository.dart</title>
<path fill="Lavender" stroke="black" stroke-width="1.3" d="M514,-151C514,-151 414,-151 414,-151 408,-151 402,-145 402,-139 402,-139 402,-127 402,-127 402,-121 408,-115 414,-115 414,-115 514,-115 514,-115 520,-115 526,-121 526,-127 526,-127 526,-139 526,-139 526,-145 520,-151 514,-151"/>
<text text-anchor="middle" x="464" y="-127.75" font-family="Arial" font-size="15.00">store_repository</text>
</g>
<!-- /main.dart&#45;&gt;/domain/repositories/store_repository.dart -->
<g id="edge3" class="edge">
<title>/main.dart&#45;&gt;/domain/repositories/store_repository.dart</title>
<path fill="none" stroke="black" stroke-width="1.3" d="M307.73,-547.64C304.3,-495.1 297.13,-339.24 330,-304 346.25,-286.58 363.73,-310.01 383,-296 427.45,-263.69 448.96,-200.01 458.13,-162.84"/>
<polygon fill="black" stroke="black" stroke-width="1.3" points="461.51,-163.78 460.35,-153.25 454.69,-162.21 461.51,-163.78"/>
</g>
<!-- /presentation/stores/cubit/stores_cubit.dart -->
<g id="node11" class="node">
<title>/presentation/stores/cubit/stores_cubit.dart</title>
<path fill="Lavender" stroke="black" stroke-width="1.3" d="M543.5,-364C543.5,-364 470.5,-364 470.5,-364 464.5,-364 458.5,-358 458.5,-352 458.5,-352 458.5,-340 458.5,-340 458.5,-334 464.5,-328 470.5,-328 470.5,-328 543.5,-328 543.5,-328 549.5,-328 555.5,-334 555.5,-340 555.5,-340 555.5,-352 555.5,-352 555.5,-358 549.5,-364 543.5,-364"/>
<text text-anchor="middle" x="507" y="-340.75" font-family="Arial" font-size="15.00">stores_cubit</text>
</g>
<!-- /main.dart&#45;&gt;/presentation/stores/cubit/stores_cubit.dart -->
<g id="edge4" class="edge">
<title>/main.dart&#45;&gt;/presentation/stores/cubit/stores_cubit.dart</title>
<path fill="none" stroke="black" stroke-width="1.3" d="M324.87,-547.53C359.64,-509.25 442.69,-417.81 483.52,-372.85"/>
<polygon fill="black" stroke="black" stroke-width="1.3" points="485.88,-375.46 490.01,-365.71 480.69,-370.76 485.88,-375.46"/>
</g>
<!-- /presentation/stores/page/stores_page.dart -->
<g id="node13" class="node">
<title>/presentation/stores/page/stores_page.dart</title>
<path fill="Lavender" stroke="black" stroke-width="1.3" d="M688.25,-447C688.25,-447 613.75,-447 613.75,-447 607.75,-447 601.75,-441 601.75,-435 601.75,-435 601.75,-423 601.75,-423 601.75,-417 607.75,-411 613.75,-411 613.75,-411 688.25,-411 688.25,-411 694.25,-411 700.25,-417 700.25,-423 700.25,-423 700.25,-435 700.25,-435 700.25,-441 694.25,-447 688.25,-447"/>
<text text-anchor="middle" x="651" y="-423.75" font-family="Arial" font-size="15.00">stores_page</text>
</g>
<!-- /main.dart&#45;&gt;/presentation/stores/page/stores_page.dart -->
<g id="edge5" class="edge">
<title>/main.dart&#45;&gt;/presentation/stores/page/stores_page.dart</title>
<path fill="none" stroke="black" stroke-width="1.3" d="M336.06,-564.31C405.57,-562.19 585.29,-554.98 607,-540 634.14,-521.27 647.86,-484.69 652.44,-458.87"/>
<polygon fill="black" stroke="black" stroke-width="1.3" points="655.89,-459.5 653.71,-449.13 648.95,-458.59 655.89,-459.5"/>
</g>
<!-- /data/models/stores_table.dart -->
<g id="node6" class="node">
<title>/data/models/stores_table.dart</title>
<path fill="Lavender" stroke="black" stroke-width="1.3" d="M233.88,-68C233.88,-68 160.12,-68 160.12,-68 154.12,-68 148.12,-62 148.12,-56 148.12,-56 148.12,-44 148.12,-44 148.12,-38 154.12,-32 160.12,-32 160.12,-32 233.88,-32 233.88,-32 239.88,-32 245.88,-38 245.88,-44 245.88,-44 245.88,-56 245.88,-56 245.88,-62 239.88,-68 233.88,-68"/>
<text text-anchor="middle" x="197" y="-44.75" font-family="Arial" font-size="15.00">stores_table</text>
</g>
<!-- /data/datasources/app_database.dart&#45;&gt;/data/models/stores_table.dart -->
<g id="edge7" class="edge">
<title>/data/datasources/app_database.dart&#45;&gt;/data/models/stores_table.dart</title>
<path fill="none" stroke="black" stroke-width="1.3" d="M187.74,-228.55C180.26,-225.77 172.46,-223.11 165,-221 145.88,-215.58 133.74,-228.26 121,-213 90.81,-176.83 99.75,-149.05 121,-107 127.53,-94.09 138.59,-83.42 150.28,-74.99"/>
<polygon fill="black" stroke="black" stroke-width="1.3" points="152.13,-77.96 158.53,-69.51 148.26,-72.13 152.13,-77.96"/>
</g>
<!-- /data/models/store_items_table.dart -->
<g id="node7" class="node">
<title>/data/models/store_items_table.dart</title>
<path fill="Lavender" stroke="black" stroke-width="1.3" d="M252.25,-151C252.25,-151 141.75,-151 141.75,-151 135.75,-151 129.75,-145 129.75,-139 129.75,-139 129.75,-127 129.75,-127 129.75,-121 135.75,-115 141.75,-115 141.75,-115 252.25,-115 252.25,-115 258.25,-115 264.25,-121 264.25,-127 264.25,-127 264.25,-139 264.25,-139 264.25,-145 258.25,-151 252.25,-151"/>
<text text-anchor="middle" x="197" y="-127.75" font-family="Arial" font-size="15.00">store_items_table</text>
</g>
<!-- /data/datasources/app_database.dart&#45;&gt;/data/models/store_items_table.dart -->
<g id="edge6" class="edge">
<title>/data/datasources/app_database.dart&#45;&gt;/data/models/store_items_table.dart</title>
<path fill="none" stroke="black" stroke-width="1.3" d="M224,-228.5C218.97,-210.91 211.14,-183.5 205.21,-162.72"/>
<polygon fill="black" stroke="black" stroke-width="1.3" points="208.62,-161.92 202.51,-153.27 201.89,-163.85 208.62,-161.92"/>
</g>
<!-- /domain/entities/store_item.dart -->
<g id="node9" class="node">
<title>/domain/entities/store_item.dart</title>
<path fill="Lavender" stroke="black" stroke-width="1.3" d="M442.25,-68C442.25,-68 379.75,-68 379.75,-68 373.75,-68 367.75,-62 367.75,-56 367.75,-56 367.75,-44 367.75,-44 367.75,-38 373.75,-32 379.75,-32 379.75,-32 442.25,-32 442.25,-32 448.25,-32 454.25,-38 454.25,-44 454.25,-44 454.25,-56 454.25,-56 454.25,-62 448.25,-68 442.25,-68"/>
<text text-anchor="middle" x="411" y="-44.75" font-family="Arial" font-size="15.00">store_item</text>
</g>
<!-- /data/datasources/app_database.dart&#45;&gt;/domain/entities/store_item.dart -->
<g id="edge9" class="edge">
<title>/data/datasources/app_database.dart&#45;&gt;/domain/entities/store_item.dart</title>
<path fill="none" stroke="black" stroke-width="1.3" d="M260.83,-228.66C266.61,-224.23 272.06,-219 276,-213 302.43,-172.8 268.59,-145.08 298,-107 312.59,-88.11 335.24,-75.16 356.44,-66.51"/>
<polygon fill="black" stroke="black" stroke-width="1.3" points="357.4,-69.88 365.51,-63.06 354.92,-63.34 357.4,-69.88"/>
</g>
<!-- /domain/entities/store.dart -->
<g id="node10" class="node">
<title>/domain/entities/store.dart</title>
<path fill="Lavender" stroke="black" stroke-width="1.3" d="M514,-68C514,-68 484,-68 484,-68 478,-68 472,-62 472,-56 472,-56 472,-44 472,-44 472,-38 478,-32 484,-32 484,-32 514,-32 514,-32 520,-32 526,-38 526,-44 526,-44 526,-56 526,-56 526,-62 520,-68 514,-68"/>
<text text-anchor="middle" x="499" y="-44.75" font-family="Arial" font-size="15.00">store</text>
</g>
<!-- /data/datasources/app_database.dart&#45;&gt;/domain/entities/store.dart -->
<g id="edge8" class="edge">
<title>/data/datasources/app_database.dart&#45;&gt;/domain/entities/store.dart</title>
<path fill="none" stroke="black" stroke-width="1.3" d="M270.08,-228.55C277.87,-224.16 285.57,-218.96 292,-213 332.67,-175.24 310.54,-135.77 358,-107 378.01,-94.87 442.48,-110.25 463,-99 471.73,-94.21 478.97,-86.3 484.6,-78.27"/>
<polygon fill="black" stroke="black" stroke-width="1.3" points="487.48,-80.26 489.83,-69.93 481.55,-76.54 487.48,-80.26"/>
</g>
<!-- /data/datasources/app_database.g.dart -->
<g id="node3" class="node">
<title>/data/datasources/app_database.g.dart</title>
<path fill="Lavender" stroke="black" stroke-width="1.3" d="M143.62,-265C143.62,-265 44.38,-265 44.38,-265 38.38,-265 32.38,-259 32.38,-253 32.38,-253 32.38,-241 32.38,-241 32.38,-235 38.38,-229 44.38,-229 44.38,-229 143.62,-229 143.62,-229 149.62,-229 155.62,-235 155.62,-241 155.62,-241 155.62,-253 155.62,-253 155.62,-259 149.62,-265 143.62,-265"/>
<text text-anchor="middle" x="94" y="-241.75" font-family="Arial" font-size="15.00">app_database.g</text>
</g>
<!-- /data/utils/extensions.dart -->
<g id="node4" class="node">
<title>/data/utils/extensions.dart</title>
<path fill="Lavender" stroke="black" stroke-width="1.3" d="M217.62,-364C217.62,-364 154.38,-364 154.38,-364 148.38,-364 142.38,-358 142.38,-352 142.38,-352 142.38,-340 142.38,-340 142.38,-334 148.38,-328 154.38,-328 154.38,-328 217.62,-328 217.62,-328 223.62,-328 229.62,-334 229.62,-340 229.62,-340 229.62,-352 229.62,-352 229.62,-358 223.62,-364 217.62,-364"/>
<text text-anchor="middle" x="186" y="-340.75" font-family="Arial" font-size="15.00">extensions</text>
</g>
<!-- /data/utils/extensions.dart&#45;&gt;/data/datasources/app_database.dart -->
<g id="edge10" class="edge">
<title>/data/utils/extensions.dart&#45;&gt;/data/datasources/app_database.dart</title>
<path fill="none" stroke="black" stroke-width="1.3" d="M193.69,-327.66C200.05,-313.31 209.2,-292.66 216.6,-275.98"/>
<polygon fill="black" stroke="black" stroke-width="1.3" points="219.73,-277.55 220.58,-266.99 213.33,-274.71 219.73,-277.55"/>
</g>
<!-- /data/utils/extensions.dart&#45;&gt;/domain/entities/store_item.dart -->
<g id="edge12" class="edge">
<title>/data/utils/extensions.dart&#45;&gt;/domain/entities/store_item.dart</title>
<path fill="none" stroke="black" stroke-width="1.3" d="M205.57,-327.69C216.23,-319.21 230.05,-309.64 244,-304 265.68,-295.24 278.93,-311.98 296,-296 311.71,-281.3 326.44,-125.14 338,-107 345.92,-94.58 357.6,-83.85 369.31,-75.19"/>
<polygon fill="black" stroke="black" stroke-width="1.3" points="371.23,-78.12 377.45,-69.54 367.24,-72.37 371.23,-78.12"/>
</g>
<!-- /data/utils/extensions.dart&#45;&gt;/domain/entities/store.dart -->
<g id="edge11" class="edge">
<title>/data/utils/extensions.dart&#45;&gt;/domain/entities/store.dart</title>
<path fill="none" stroke="black" stroke-width="1.3" d="M213.94,-327.59C228.4,-319.29 246.62,-309.92 264,-304 283.64,-297.31 294.11,-309.35 310,-296 378.35,-238.57 307.46,-161.71 378,-107 392.99,-95.37 446.45,-108.27 463,-99 471.69,-94.13 478.91,-86.2 484.55,-78.18"/>
<polygon fill="black" stroke="black" stroke-width="1.3" points="487.42,-80.18 489.79,-69.86 481.5,-76.46 487.42,-80.18"/>
</g>
<!-- /data/repositories/store_repository_impl.dart&#45;&gt;/data/datasources/app_database.dart -->
<g id="edge13" class="edge">
<title>/data/repositories/store_repository_impl.dart&#45;&gt;/data/datasources/app_database.dart</title>
<path fill="none" stroke="black" stroke-width="1.3" d="M146.21,-410.69C139.82,-406.52 134.14,-401.37 130,-395 118.99,-378.04 117.39,-319.81 130,-304 139.95,-291.52 150.52,-302.71 165,-296 177.73,-290.1 190.39,-281.37 201.04,-272.98"/>
<polygon fill="black" stroke="black" stroke-width="1.3" points="203.18,-275.75 208.69,-266.7 198.74,-270.34 203.18,-275.75"/>
</g>
<!-- /data/repositories/store_repository_impl.dart&#45;&gt;/data/utils/extensions.dart -->
<g id="edge14" class="edge">
<title>/data/repositories/store_repository_impl.dart&#45;&gt;/data/utils/extensions.dart</title>
<path fill="none" stroke="black" stroke-width="1.3" d="M200.18,-410.82C197.93,-400.69 195.02,-387.6 192.43,-375.92"/>
<polygon fill="black" stroke="black" stroke-width="1.3" points="195.89,-375.36 190.3,-366.35 189.05,-376.87 195.89,-375.36"/>
</g>
<!-- /data/repositories/store_repository_impl.dart&#45;&gt;/domain/repositories/store_repository.dart -->
<g id="edge17" class="edge">
<title>/data/repositories/store_repository_impl.dart&#45;&gt;/domain/repositories/store_repository.dart</title>
<path fill="none" stroke="black" stroke-width="1.3" d="M255.43,-410.67C262.46,-406.46 268.97,-401.3 274,-395 299.82,-362.63 263.17,-331.65 294,-304 318.63,-281.91 342.89,-317.54 368,-296 394.19,-273.54 371.79,-251.45 388,-221 400.25,-198 419.64,-175.93 435.77,-159.78"/>
<polygon fill="black" stroke="black" stroke-width="1.3" points="438.2,-162.3 442.92,-152.82 433.32,-157.29 438.2,-162.3"/>
</g>
<!-- /data/repositories/store_repository_impl.dart&#45;&gt;/domain/entities/store_item.dart -->
<g id="edge16" class="edge">
<title>/data/repositories/store_repository_impl.dart&#45;&gt;/domain/entities/store_item.dart</title>
<path fill="none" stroke="black" stroke-width="1.3" d="M228.43,-410.77C233.55,-406.16 238.46,-400.82 242,-395 263.62,-359.45 233.64,-332.45 264,-304 279.14,-289.81 294.11,-309.35 310,-296 378.35,-238.57 340.06,-187.81 378,-107 382.55,-97.31 388.26,-87.11 393.65,-78.11"/>
<polygon fill="black" stroke="black" stroke-width="1.3" points="396.45,-80.23 398.7,-69.87 390.49,-76.57 396.45,-80.23"/>
</g>
<!-- /data/repositories/store_repository_impl.dart&#45;&gt;/domain/entities/store.dart -->
<g id="edge15" class="edge">
<title>/data/repositories/store_repository_impl.dart&#45;&gt;/domain/entities/store.dart</title>
<path fill="none" stroke="black" stroke-width="1.3" d="M242.06,-410.55C248.18,-406.24 253.85,-401.08 258,-395 281.12,-361.06 244.31,-332.37 274,-304 294.09,-284.81 314.42,-313.5 336,-296 366.35,-271.38 354.06,-250.51 365,-213 378.56,-166.53 353.74,-139.07 390,-107 402.22,-96.19 448.82,-107.08 463,-99 471.65,-94.07 478.86,-86.12 484.5,-78.1"/>
<polygon fill="black" stroke="black" stroke-width="1.3" points="487.37,-80.12 489.75,-69.79 481.45,-76.38 487.37,-80.12"/>
</g>
<!-- /data/models/stores_table.dart&#45;&gt;/domain/entities/store.dart -->
<g id="edge18" class="edge">
<title>/data/models/stores_table.dart&#45;&gt;/domain/entities/store.dart</title>
<path fill="none" stroke="black" stroke-width="1.3" d="M242.09,-68.37C275.41,-80.92 322.23,-96.41 365,-103 384.55,-106.01 434.65,-107.11 454,-103 467.38,-100.16 477.73,-89.45 485.11,-78.39"/>
<polygon fill="black" stroke="black" stroke-width="1.3" points="487.97,-80.44 490.06,-70.05 481.95,-76.87 487.97,-80.44"/>
</g>
<!-- /data/models/store_items_table.dart&#45;&gt;/data/models/stores_table.dart -->
<g id="edge19" class="edge">
<title>/data/models/store_items_table.dart&#45;&gt;/data/models/stores_table.dart</title>
<path fill="none" stroke="black" stroke-width="1.3" d="M197,-114.82C197,-104.8 197,-91.88 197,-80.29"/>
<polygon fill="black" stroke="black" stroke-width="1.3" points="200.5,-80.4 197,-70.4 193.5,-80.4 200.5,-80.4"/>
</g>
<!-- /data/models/store_items_table.dart&#45;&gt;/domain/entities/store_item.dart -->
<g id="edge20" class="edge">
<title>/data/models/store_items_table.dart&#45;&gt;/domain/entities/store_item.dart</title>
<path fill="none" stroke="black" stroke-width="1.3" d="M243.17,-114.52C276.43,-101.93 321.44,-84.9 356.47,-71.64"/>
<polygon fill="black" stroke="black" stroke-width="1.3" points="357.51,-74.99 365.63,-68.17 355.03,-68.44 357.51,-74.99"/>
</g>
<!-- /domain/repositories/store_repository.dart&#45;&gt;/domain/entities/store_item.dart -->
<g id="edge22" class="edge">
<title>/domain/repositories/store_repository.dart&#45;&gt;/domain/entities/store_item.dart</title>
<path fill="none" stroke="black" stroke-width="1.3" d="M452.76,-114.82C445.78,-104.16 436.66,-90.22 428.72,-78.08"/>
<polygon fill="black" stroke="black" stroke-width="1.3" points="431.89,-76.53 423.48,-70.08 426.03,-80.36 431.89,-76.53"/>
</g>
<!-- /domain/repositories/store_repository.dart&#45;&gt;/domain/entities/store.dart -->
<g id="edge21" class="edge">
<title>/domain/repositories/store_repository.dart&#45;&gt;/domain/entities/store.dart</title>
<path fill="none" stroke="black" stroke-width="1.3" d="M471.42,-114.82C475.89,-104.48 481.7,-91.05 486.82,-79.18"/>
<polygon fill="black" stroke="black" stroke-width="1.3" points="489.93,-80.81 490.69,-70.24 483.51,-78.03 489.93,-80.81"/>
</g>
<!-- /presentation/stores/cubit/stores_cubit.dart&#45;&gt;/domain/repositories/store_repository.dart -->
<g id="edge25" class="edge">
<title>/presentation/stores/cubit/stores_cubit.dart&#45;&gt;/domain/repositories/store_repository.dart</title>
<path fill="none" stroke="black" stroke-width="1.3" d="M503.48,-327.73C496.11,-291.55 478.97,-207.47 469.89,-162.91"/>
<polygon fill="black" stroke="black" stroke-width="1.3" points="473.33,-162.24 467.9,-153.14 466.47,-163.64 473.33,-162.24"/>
</g>
<!-- /presentation/stores/cubit/stores_cubit.dart&#45;&gt;/domain/entities/store_item.dart -->
<g id="edge24" class="edge">
<title>/presentation/stores/cubit/stores_cubit.dart&#45;&gt;/domain/entities/store_item.dart</title>
<path fill="none" stroke="black" stroke-width="1.3" d="M512.59,-327.51C527.84,-278.18 567.18,-139.46 538,-107 526.79,-94.54 478.26,-105.92 463,-99 451.71,-93.88 441.23,-85.33 432.69,-76.86"/>
<polygon fill="black" stroke="black" stroke-width="1.3" points="435.29,-74.51 425.88,-69.64 430.2,-79.31 435.29,-74.51"/>
</g>
<!-- /presentation/stores/cubit/stores_cubit.dart&#45;&gt;/domain/entities/store.dart -->
<g id="edge23" class="edge">
<title>/presentation/stores/cubit/stores_cubit.dart&#45;&gt;/domain/entities/store.dart</title>
<path fill="none" stroke="black" stroke-width="1.3" d="M527.82,-327.64C536.43,-319.11 545.45,-308.07 550,-296 579.6,-217.39 580.32,-185.34 550,-107 545.67,-95.81 537.94,-85.47 529.79,-76.81"/>
<polygon fill="black" stroke="black" stroke-width="1.3" points="532.25,-74.33 522.67,-69.81 527.34,-79.32 532.25,-74.33"/>
</g>
<!-- /presentation/stores/cubit/stores_state.dart -->
<g id="node12" class="node">
<title>/presentation/stores/cubit/stores_state.dart</title>
<path fill="Lavender" stroke="black" stroke-width="1.3" d="M428.25,-364C428.25,-364 353.75,-364 353.75,-364 347.75,-364 341.75,-358 341.75,-352 341.75,-352 341.75,-340 341.75,-340 341.75,-334 347.75,-328 353.75,-328 353.75,-328 428.25,-328 428.25,-328 434.25,-328 440.25,-334 440.25,-340 440.25,-340 440.25,-352 440.25,-352 440.25,-358 434.25,-364 428.25,-364"/>
<text text-anchor="middle" x="391" y="-340.75" font-family="Arial" font-size="15.00">stores_state</text>
</g>
<!-- /presentation/stores/page/stores_page.dart&#45;&gt;/main.dart -->
<g id="edge28" class="edge">
<title>/presentation/stores/page/stores_page.dart&#45;&gt;/main.dart</title>
<path fill="none" stroke="black" stroke-width="1.3" d="M642.33,-447.18C634,-472.24 620.58,-518.21 589,-540 569.36,-553.55 420.39,-560.74 348.01,-563.56"/>
<polygon fill="black" stroke="black" stroke-width="1.3" points="348.08,-560.05 338.22,-563.93 348.35,-567.05 348.08,-560.05"/>
</g>
<!-- /presentation/stores/page/stores_page.dart&#45;&gt;/domain/entities/store_item.dart -->
<g id="edge27" class="edge">
<title>/presentation/stores/page/stores_page.dart&#45;&gt;/domain/entities/store_item.dart</title>
<path fill="none" stroke="black" stroke-width="1.3" d="M700.55,-418.94C713.58,-414.06 726.16,-406.55 734,-395 745.35,-378.27 741.47,-322.79 734,-304 689.52,-192.1 656.22,-159.81 548,-107 513.9,-90.36 497.65,-114.46 463,-99 451.67,-93.95 441.2,-85.42 432.66,-76.94"/>
<polygon fill="black" stroke="black" stroke-width="1.3" points="435.25,-74.59 425.85,-69.7 430.15,-79.38 435.25,-74.59"/>
</g>
<!-- /presentation/stores/page/stores_page.dart&#45;&gt;/domain/entities/store.dart -->
<g id="edge26" class="edge">
<title>/presentation/stores/page/stores_page.dart&#45;&gt;/domain/entities/store.dart</title>
<path fill="none" stroke="black" stroke-width="1.3" d="M700.57,-422.56C717.82,-418.02 735.48,-409.8 746,-395 790.82,-331.98 781.98,-289.45 746,-221 701.81,-136.94 595.17,-86.35 537.52,-64.22"/>
<polygon fill="black" stroke="black" stroke-width="1.3" points="538.78,-60.96 528.19,-60.74 536.33,-67.51 538.78,-60.96"/>
</g>
<!-- /presentation/stores/page/stores_page.dart&#45;&gt;/presentation/stores/cubit/stores_cubit.dart -->
<g id="edge29" class="edge">
<title>/presentation/stores/page/stores_page.dart&#45;&gt;/presentation/stores/cubit/stores_cubit.dart</title>
<path fill="none" stroke="black" stroke-width="1.3" d="M616.31,-410.55C610.29,-407.83 604.02,-405.2 598,-403 585.04,-398.26 580.34,-401.17 568,-395 555.94,-388.97 543.99,-380.33 533.91,-372.03"/>
<polygon fill="black" stroke="black" stroke-width="1.3" points="536.24,-369.41 526.37,-365.56 531.68,-374.72 536.24,-369.41"/>
</g>
<!-- /presentation/stores/widgets/store_name_dialog.dart -->
<g id="node14" class="node">
<title>/presentation/stores/widgets/store_name_dialog.dart</title>
<path fill="Lavender" stroke="black" stroke-width="1.3" d="M710.38,-364C710.38,-364 591.62,-364 591.62,-364 585.62,-364 579.62,-358 579.62,-352 579.62,-352 579.62,-340 579.62,-340 579.62,-334 585.62,-328 591.62,-328 591.62,-328 710.38,-328 710.38,-328 716.38,-328 722.38,-334 722.38,-340 722.38,-340 722.38,-352 722.38,-352 722.38,-358 716.38,-364 710.38,-364"/>
<text text-anchor="middle" x="651" y="-340.75" font-family="Arial" font-size="15.00">store_name_dialog</text>
</g>
<!-- /presentation/stores/page/stores_page.dart&#45;&gt;/presentation/stores/widgets/store_name_dialog.dart -->
<g id="edge30" class="edge">
<title>/presentation/stores/page/stores_page.dart&#45;&gt;/presentation/stores/widgets/store_name_dialog.dart</title>
<path fill="none" stroke="black" stroke-width="1.3" d="M651,-410.82C651,-400.8 651,-387.88 651,-376.29"/>
<polygon fill="black" stroke="black" stroke-width="1.3" points="654.5,-376.4 651,-366.4 647.5,-376.4 654.5,-376.4"/>
</g>
</g>
</svg>
